<svg width="26" height="26" viewBox="0 0 26 26" fill="none" xmlns="http://www.w3.org/2000/svg">
<path d="M24.6454 9.81692H22.9266C22.8063 9.47692 22.6678 9.14321 22.5117 8.81723L23.7276 7.60132C24.1714 7.1576 24.1714 6.43806 23.7276 5.99427L20.5136 2.78018C20.3004 2.56707 20.0114 2.4473 19.71 2.4473C19.4086 2.4473 19.1196 2.567 18.9065 2.78018L17.6905 3.99609C17.3645 3.84003 17.0308 3.70154 16.6908 3.58124V1.86238C16.6908 1.2348 16.182 0.726013 15.5545 0.726013H11.009C10.3814 0.726013 9.87265 1.2348 9.87265 1.86238V3.58124C9.53265 3.70154 9.19894 3.84003 8.87303 3.99609L7.65704 2.78018C7.21333 2.33639 6.49378 2.33639 6.05 2.78018L2.83583 5.9942C2.62265 6.2073 2.50295 6.49632 2.50295 6.79776C2.50295 7.09912 2.62265 7.38813 2.83583 7.60124L4.05174 8.81723C3.89568 9.14321 3.75727 9.47692 3.63697 9.81692H1.9181C1.29053 9.81692 0.781738 10.3257 0.781738 10.9533V15.4987C0.781738 16.1263 1.29053 16.6351 1.9181 16.6351H3.63697C3.75727 16.9751 3.89568 17.3088 4.05174 17.6348L2.83583 18.8508C2.62265 19.0639 2.50295 19.3529 2.50295 19.6543C2.50295 19.9557 2.62265 20.2447 2.83583 20.4578L6.05007 23.6719C6.49386 24.1156 7.21333 24.1156 7.65712 23.6719L8.8731 22.456C9.19901 22.6121 9.53272 22.7506 9.87265 22.8709V24.5897C9.87265 25.2172 10.3814 25.726 11.009 25.726H15.5545C16.182 25.726 16.6908 25.2172 16.6908 24.5897V22.8708C17.0308 22.7505 17.3645 22.612 17.6905 22.4559L18.9065 23.6718C19.3503 24.1156 20.0698 24.1156 20.5136 23.6718L23.7276 20.4578C24.1714 20.014 24.1714 19.2945 23.7276 18.8507L22.5117 17.6348C22.6679 17.3088 22.8064 16.975 22.9267 16.6351H24.6454C25.273 16.6351 25.7817 16.1263 25.7817 15.4987V10.9533C25.7817 10.3257 25.273 9.81692 24.6454 9.81692ZM13.2817 17.7715C10.7754 17.7715 8.73628 15.7324 8.73628 13.226C8.73628 10.7196 10.7754 8.68056 13.2817 8.68056C15.7881 8.68056 17.8272 10.7196 17.8272 13.226C17.8272 15.7324 15.7881 17.7715 13.2817 17.7715Z" fill="#CACACA"/>
</svg>
